<svg xmlns="http://www.w3.org/2000/svg" viewBox="0 0 80 80">
  <circle cx="40" cy="40" r="40" fill="#c0392b"/>
  <!-- Prancing horse / speed icon -->
  <!-- Horse silhouette simplified -->
  <path d="M28 54 L30 42 L26 36 L28 30 L32 28 L36 24 L38 20 L40 22 L42 20 L44 24 L46 26 L50 28 L54 32 L56 38 L54 42 L56 46 L54 50 L50 54" fill="none" stroke="white" stroke-width="2.5" stroke-linecap="round" stroke-linejoin="round"/>
  <!-- Legs -->
  <line x1="32" y1="44" x2="28" y2="58" stroke="white" stroke-width="2" stroke-linecap="round"/>
  <line x1="36" y1="46" x2="34" y2="58" stroke="white" stroke-width="2" stroke-linecap="round"/>
  <line x1="46" y1="46" x2="44" y2="58" stroke="white" stroke-width="2" stroke-linecap="round"/>
  <line x1="50" y1="44" x2="52" y2="58" stroke="white" stroke-width="2" stroke-linecap="round"/>
  <!-- Speed lines -->
  <line x1="16" y1="34" x2="24" y2="34" stroke="white" stroke-width="1.5" stroke-linecap="round" opacity="0.6"/>
  <line x1="18" y1="40" x2="24" y2="40" stroke="white" stroke-width="1.5" stroke-linecap="round" opacity="0.6"/>
  <line x1="16" y1="46" x2="24" y2="46" stroke="white" stroke-width="1.5" stroke-linecap="round" opacity="0.6"/>
</svg>