<svg xmlns="http://www.w3.org/2000/svg" viewBox="0 0 80 80">
  <circle cx="40" cy="40" r="40" fill="#1a5276"/>
  <!-- Hotel/Building icon -->
  <rect x="30" y="24" width="20" height="34" rx="1" fill="white"/>
  <rect x="22" y="36" width="10" height="22" rx="1" fill="white"/>
  <rect x="48" y="36" width="10" height="22" rx="1" fill="white"/>
  <!-- Windows -->
  <rect x="34" y="28" width="4" height="3" rx="0.5" fill="#1a5276"/>
  <rect x="42" y="28" width="4" height="3" rx="0.5" fill="#1a5276"/>
  <rect x="34" y="34" width="4" height="3" rx="0.5" fill="#1a5276"/>
  <rect x="42" y="34" width="4" height="3" rx="0.5" fill="#1a5276"/>
  <rect x="34" y="40" width="4" height="3" rx="0.5" fill="#1a5276"/>
  <rect x="42" y="40" width="4" height="3" rx="0.5" fill="#1a5276"/>
  <rect x="34" y="46" width="4" height="3" rx="0.5" fill="#1a5276"/>
  <rect x="42" y="46" width="4" height="3" rx="0.5" fill="#1a5276"/>
  <!-- Door -->
  <rect x="37" y="52" width="6" height="6" rx="1" fill="#1a5276"/>
  <!-- Side windows -->
  <rect x="25" y="40" width="4" height="3" rx="0.5" fill="#1a5276"/>
  <rect x="25" y="46" width="4" height="3" rx="0.5" fill="#1a5276"/>
  <rect x="51" y="40" width="4" height="3" rx="0.5" fill="#1a5276"/>
  <rect x="51" y="46" width="4" height="3" rx="0.5" fill="#1a5276"/>
  <!-- Base line -->
  <rect x="18" y="58" width="44" height="2" rx="1" fill="white"/>
</svg>