<svg xmlns="http://www.w3.org/2000/svg" viewBox="0 0 80 80">
  <circle cx="40" cy="40" r="40" fill="#16a085"/>
  <!-- Leaf -->
  <path d="M22 54 C22 54 24 36 36 28 C48 20 58 22 58 22 C58 22 56 40 44 48 C32 56 22 54 22 54Z" fill="white"/>
  <path d="M22 54 C30 46 42 34 58 22" fill="none" stroke="#16a085" stroke-width="1.5"/>
  <!-- Leaf veins -->
  <path d="M32 48 C36 42 40 38 46 32" fill="none" stroke="#16a085" stroke-width="1" opacity="0.5"/>
  <path d="M28 44 C32 40 36 36 40 34" fill="none" stroke="#16a085" stroke-width="1" opacity="0.5"/>
  <!-- Small gavel -->
  <rect x="42" y="50" width="14" height="5" rx="2" fill="white"/>
  <rect x="48" y="55" width="2" height="6" rx="1" fill="white"/>
  <rect x="44" y="60" width="10" height="2" rx="1" fill="white"/>
</svg>