<svg xmlns="http://www.w3.org/2000/svg" viewBox="0 0 80 80">
  <circle cx="40" cy="40" r="40" fill="#2980b9"/>
  <!-- Fish/fly fishing hook icon -->
  <!-- Fish body -->
  <path d="M20 40 C20 40 28 30 42 30 C52 30 58 36 58 40 C58 44 52 50 42 50 C28 50 20 40 20 40Z" fill="white"/>
  <!-- Tail -->
  <path d="M56 34 L64 26 L64 38 Z" fill="white"/>
  <path d="M56 46 L64 54 L64 42 Z" fill="white"/>
  <!-- Eye -->
  <circle cx="30" cy="40" r="3" fill="#2980b9"/>
  <circle cx="30" cy="40" r="1.5" fill="white"/>
  <!-- Hook below -->
  <path d="M40 50 L40 56 C40 62 46 62 46 56 L46 54" fill="none" stroke="white" stroke-width="2" stroke-linecap="round"/>
  <!-- Hook barb -->
  <line x1="46" y1="54" x2="44" y2="52" stroke="white" stroke-width="1.5" stroke-linecap="round"/>
</svg>