<svg xmlns="http://www.w3.org/2000/svg" viewBox="0 0 80 80">
  <circle cx="40" cy="40" r="40" fill="#e74c3c"/>
  <!-- Microphone/Broadcast icon -->
  <rect x="36" y="22" width="8" height="18" rx="4" fill="white"/>
  <path d="M28 34 C28 41 33 46 40 46 C47 46 52 41 52 34" fill="none" stroke="white" stroke-width="2.5" stroke-linecap="round"/>
  <line x1="40" y1="46" x2="40" y2="54" stroke="white" stroke-width="2.5" stroke-linecap="round"/>
  <line x1="33" y1="54" x2="47" y2="54" stroke="white" stroke-width="2.5" stroke-linecap="round"/>
  <!-- Broadcast waves -->
  <path d="M22 26 C22 20 28 16 34 18" fill="none" stroke="white" stroke-width="1.5" stroke-linecap="round" opacity="0.7"/>
  <path d="M58 26 C58 20 52 16 46 18" fill="none" stroke="white" stroke-width="1.5" stroke-linecap="round" opacity="0.7"/>
  <path d="M18 30 C18 22 26 14 34 16" fill="none" stroke="white" stroke-width="1.5" stroke-linecap="round" opacity="0.5"/>
  <path d="M62 30 C62 22 54 14 46 16" fill="none" stroke="white" stroke-width="1.5" stroke-linecap="round" opacity="0.5"/>
</svg>